<svg width="1320" height="158" viewBox="0 0 1320 158" fill="none" xmlns="http://www.w3.org/2000/svg">
<g clip-path="url(#clip0_3006_592)">
<path d="M1293.02 28.0505H1292.97L1288.56 15.125H1282.73V33.6462C1283.74 33.1171 1284.87 32.6667 1286.11 32.3064V20.7433L1286.17 19.2571L1291.33 31.462C1292 31.4057 1292.19 31.3832 1292.88 31.3832C1293.56 31.3832 1293.74 31.4169 1294.41 31.462L1299.57 19.122L1299.63 20.6082V32.3064C1300.85 32.6667 1301.99 33.1171 1303.01 33.6462V15.125H1297.18L1293.01 28.0505H1293.02Z" fill="#DFD9D9"/>
<path d="M1288.2 40.6932C1289.45 40.6932 1290.46 39.6799 1290.46 38.4301C1290.46 37.1802 1289.45 36.167 1288.2 36.167C1286.95 36.167 1285.93 37.1802 1285.93 38.4301C1285.93 39.6799 1286.95 40.6932 1288.2 40.6932Z" fill="#DFD9D9"/>
<path d="M1297.55 40.6932C1298.8 40.6932 1299.82 39.6799 1299.82 38.4301C1299.82 37.1802 1298.8 36.167 1297.55 36.167C1296.3 36.167 1295.29 37.1802 1295.29 38.4301C1295.29 39.6799 1296.3 40.6932 1297.55 40.6932Z" fill="#DFD9D9"/>
<path d="M1292.88 0.554688C1278.52 0.554688 1266.84 12.2191 1266.84 26.5633C1266.84 40.9074 1278.52 52.5719 1292.88 52.5719C1307.23 52.5719 1318.91 40.9074 1318.91 26.5633C1318.91 12.2191 1307.23 0.554688 1292.88 0.554688ZM1292.88 49.104C1280.43 49.104 1270.31 38.9934 1270.31 26.5633C1270.31 14.1332 1280.43 4.0225 1292.88 4.0225C1305.32 4.0225 1315.44 14.1332 1315.44 26.5633C1315.44 38.9934 1305.32 49.104 1292.88 49.104Z" fill="#DFD9D9"/>
<path d="M180.548 30.5816V157.553H111.507V115.191L90.1774 140.566L69.0256 115.369V157.553H0V30.5816H69.0418V30.759L90.1935 55.9564L111.523 30.6622V30.5654H180.565L180.548 30.5816Z" fill="#DFD9D9"/>
<path d="M263.573 55.955V81.4267H353.848V106.802H263.573V132.177H353.848V157.551H194.531V30.5801H353.848V55.955H263.573Z" fill="#DFD9D9"/>
<path d="M524.837 30.7578V56.1327H447.754C444.089 56.1972 440.989 57.4555 438.454 59.9397C435.854 62.4078 434.563 65.3922 434.563 68.8766C434.563 68.9895 434.53 86.589 434.482 121.659C434.595 124.901 435.774 127.466 438.018 129.354C440.198 131.176 443.088 132.128 446.689 132.177H455.811V81.6043H524.853V157.745H379.972C376.016 157.745 372.625 156.39 369.8 153.68C366.974 151.034 365.553 147.792 365.553 143.953V44.5664C365.553 40.7271 366.974 37.5008 369.8 34.8391C372.625 32.129 376.016 30.7739 379.972 30.7739H524.853L524.837 30.7578Z" fill="#DFD9D9"/>
<path d="M643.965 132.177H612.108L606.796 157.551H537.754L564.299 30.5801H691.742L718.286 157.551H649.245L643.932 132.177H643.965ZM638.653 106.802L628.028 55.955L617.404 106.802H638.653Z" fill="#DFD9D9"/>
<path d="M800.262 55.955V81.4267H890.536V106.802H800.262V132.177H890.536V157.551H731.22V30.5801H890.536V55.955H800.262Z" fill="#DFD9D9"/>
<path d="M1061.88 55.955H1016.74V157.551H947.711V55.955H902.566V30.5801H1061.88V55.955Z" fill="#DFD9D9"/>
<path d="M1254.83 30.5801V157.551H1185.8V106.802H1143.32V157.551H1074.28V30.5801H1143.32V81.4267H1185.8V30.5801H1254.83Z" fill="#DFD9D9"/>
</g>
<defs>
<clipPath id="clip0_3006_592">
<rect width="1320" height="157.726" fill="white" transform="translate(0 0.0195312)"/>
</clipPath>
</defs>
</svg>
